<mxfile modified="2023-12-20T21:44:11.739Z" host="Electron" agent="Mozilla/5.0 (Macintosh; Intel Mac OS X 10_15_7) AppleWebKit/537.36 (KHTML, like Gecko) draw.io/22.1.11 Chrome/114.0.5735.289 Electron/25.9.8 Safari/537.36" etag="eTMjNG7DDeUUIseFKzLO" version="22.1.11" type="device">
  <diagram name="Page-1" id="97916047-d0de-89f5-080d-49f4d83e522f">
    <mxGraphModel dx="2129" dy="825" grid="1" gridSize="10" guides="1" tooltips="1" connect="1" arrows="1" fold="1" page="1" pageScale="1.5" pageWidth="1169" pageHeight="827" background="#ffffff" math="0" shadow="0">
      <root>
        <mxCell id="0" />
        <mxCell id="1" parent="0" />
        <mxCell id="BJafYr8KW9FpYlb-_F6j-114" value="UD&amp;nbsp;" style="shape=ext;double=1;rounded=0;whiteSpace=wrap;html=1;strokeColor=#000000;fillColor=#FFE6CC;gradientColor=none;align=right;labelPosition=center;verticalLabelPosition=middle;verticalAlign=top;horizontal=1;fontSize=24;glass=0;" parent="1" vertex="1">
          <mxGeometry x="1090" y="180" width="440" height="250" as="geometry" />
        </mxCell>
        <mxCell id="BJafYr8KW9FpYlb-_F6j-113" value="&lt;div style=&quot;text-align: left; font-size: 24px;&quot;&gt;&lt;span style=&quot;font-size: 24px;&quot;&gt;SUD&lt;/span&gt;&lt;/div&gt;&lt;div style=&quot;text-align: left; font-size: 24px;&quot;&gt;&lt;/div&gt;" style="shape=ext;double=1;rounded=0;whiteSpace=wrap;html=1;strokeColor=#000000;fillColor=#75B6FF;opacity=20;glass=1;comic=0;shadow=0;align=left;verticalAlign=top;fontSize=24;" parent="1" vertex="1">
          <mxGeometry x="200" y="213" width="1100" height="384" as="geometry" />
        </mxCell>
        <mxCell id="2" value="unk" style="rounded=1;fillColor=#10739E;strokeColor=#000000;shadow=1;gradientColor=none;fontStyle=1;fontColor=#FFFFFF;fontSize=14;" parent="1" vertex="1">
          <mxGeometry x="630" y="220" width="86" height="26" as="geometry" />
        </mxCell>
        <mxCell id="BJafYr8KW9FpYlb-_F6j-58" value="subj" style="rounded=1;fillColor=#10739E;strokeColor=#000000;shadow=1;gradientColor=none;fontStyle=1;fontColor=#FFFFFF;fontSize=14;" parent="1" vertex="1">
          <mxGeometry x="240" y="390" width="86" height="26" as="geometry" />
        </mxCell>
        <mxCell id="BJafYr8KW9FpYlb-_F6j-59" value="udep" style="rounded=1;fillColor=#10739E;strokeColor=#000000;shadow=1;gradientColor=none;fontStyle=1;fontColor=#FFFFFF;fontSize=14;" parent="1" vertex="1">
          <mxGeometry x="630" y="320" width="86" height="26" as="geometry" />
        </mxCell>
        <mxCell id="BJafYr8KW9FpYlb-_F6j-60" value="" style="endArrow=classic;html=1;entryX=0.5;entryY=0;entryDx=0;entryDy=0;edgeStyle=orthogonalEdgeStyle;exitX=0.5;exitY=1;exitDx=0;exitDy=0;" parent="1" source="2" target="BJafYr8KW9FpYlb-_F6j-59" edge="1">
          <mxGeometry width="50" height="50" relative="1" as="geometry">
            <mxPoint x="719" y="280" as="sourcePoint" />
            <mxPoint x="567" y="324" as="targetPoint" />
            <Array as="points">
              <mxPoint x="673" y="310" />
              <mxPoint x="673" y="310" />
            </Array>
          </mxGeometry>
        </mxCell>
        <mxCell id="BJafYr8KW9FpYlb-_F6j-69" value="comp" style="rounded=1;fillColor=#10739E;strokeColor=#000000;shadow=1;gradientColor=none;fontStyle=1;fontColor=#FFFFFF;fontSize=14;" parent="1" vertex="1">
          <mxGeometry x="390" y="392" width="86" height="26" as="geometry" />
        </mxCell>
        <mxCell id="BJafYr8KW9FpYlb-_F6j-73" value="mod" style="rounded=1;fillColor=#10739E;strokeColor=#000000;shadow=1;gradientColor=none;fontStyle=1;fontColor=#FFFFFF;fontSize=14;" parent="1" vertex="1">
          <mxGeometry x="863" y="392" width="86" height="26" as="geometry" />
        </mxCell>
        <mxCell id="BJafYr8KW9FpYlb-_F6j-75" value="vocative, dislocated, discourse, det, clf, cc, flat, compound, list, parataxis, orphan, goeswith, root, punct" style="rounded=1;fillColor=#60a917;strokeColor=#000000;shadow=1;fontStyle=1;fontColor=#ffffff;fontSize=14;whiteSpace=wrap;" parent="1" vertex="1">
          <mxGeometry x="1100" y="311" width="184" height="100" as="geometry" />
        </mxCell>
        <mxCell id="BJafYr8KW9FpYlb-_F6j-76" value="dep" style="rounded=1;fillColor=#FF8000;strokeColor=#2D7600;shadow=1;fontStyle=1;fontColor=#ffffff;fontSize=14;" parent="1" vertex="1">
          <mxGeometry x="1326" y="194" width="86" height="26" as="geometry" />
        </mxCell>
        <mxCell id="BJafYr8KW9FpYlb-_F6j-81" value="" style="endArrow=classic;html=1;exitX=0.5;exitY=1;exitDx=0;exitDy=0;entryX=0.5;entryY=0;entryDx=0;entryDy=0;edgeStyle=orthogonalEdgeStyle;" parent="1" source="BJafYr8KW9FpYlb-_F6j-59" target="BJafYr8KW9FpYlb-_F6j-69" edge="1">
          <mxGeometry width="50" height="50" relative="1" as="geometry">
            <mxPoint x="407" y="510" as="sourcePoint" />
            <mxPoint x="457" y="460" as="targetPoint" />
          </mxGeometry>
        </mxCell>
        <mxCell id="BJafYr8KW9FpYlb-_F6j-82" value="" style="endArrow=classic;html=1;exitX=0.5;exitY=1;exitDx=0;exitDy=0;entryX=0.5;entryY=0;entryDx=0;entryDy=0;edgeStyle=orthogonalEdgeStyle;" parent="1" source="BJafYr8KW9FpYlb-_F6j-59" target="BJafYr8KW9FpYlb-_F6j-73" edge="1">
          <mxGeometry width="50" height="50" relative="1" as="geometry">
            <mxPoint x="407" y="510" as="sourcePoint" />
            <mxPoint x="457" y="460" as="targetPoint" />
          </mxGeometry>
        </mxCell>
        <mxCell id="BJafYr8KW9FpYlb-_F6j-83" value="comp:obl" style="rounded=1;fillColor=#66B2FF;strokeColor=#000000;shadow=1;gradientColor=none;fontStyle=1;fontColor=#FFFFFF;fontSize=14;" parent="1" vertex="1">
          <mxGeometry x="600" y="480" width="86" height="26" as="geometry" />
        </mxCell>
        <mxCell id="BJafYr8KW9FpYlb-_F6j-85" value="comp:pred" style="rounded=1;fillColor=#66B2FF;strokeColor=#000000;shadow=1;gradientColor=none;fontStyle=1;fontColor=#FFFFFF;fontSize=14;" parent="1" vertex="1">
          <mxGeometry x="703" y="480" width="86" height="26" as="geometry" />
        </mxCell>
        <mxCell id="BJafYr8KW9FpYlb-_F6j-86" value="comp:cleft" style="rounded=1;fillColor=#66B2FF;strokeColor=#000000;shadow=1;gradientColor=none;fontStyle=1;fontColor=#FFFFFF;fontSize=14;" parent="1" vertex="1">
          <mxGeometry x="805" y="480" width="86" height="26" as="geometry" />
        </mxCell>
        <mxCell id="BJafYr8KW9FpYlb-_F6j-88" value="@agent" style="rounded=1;fillColor=#44D4EB;strokeColor=#000000;shadow=1;gradientColor=none;fontStyle=1;fontColor=#FFFFFF;fontSize=14;" parent="1" vertex="1">
          <mxGeometry x="618" y="560" width="68" height="26" as="geometry" />
        </mxCell>
        <mxCell id="BJafYr8KW9FpYlb-_F6j-89" value="@lvc" style="rounded=1;fillColor=#44D4EB;strokeColor=#000000;shadow=1;gradientColor=none;fontStyle=1;fontColor=#FFFFFF;fontSize=14;" parent="1" vertex="1">
          <mxGeometry x="532" y="560" width="68" height="26" as="geometry" />
        </mxCell>
        <mxCell id="BJafYr8KW9FpYlb-_F6j-96" value="nsubj, csubj, obj, iobj, obl, xcomp, ccomp, amod, nmod, nummod, advmod, acl, advcl, aux, cop, case, mark, expl, fixed" style="rounded=1;fillColor=#FF8000;strokeColor=#2D7600;shadow=1;fontStyle=1;fontColor=#ffffff;fontSize=14;whiteSpace=wrap;" parent="1" vertex="1">
          <mxGeometry x="1310" y="301" width="200" height="110" as="geometry" />
        </mxCell>
        <mxCell id="BJafYr8KW9FpYlb-_F6j-103" value="" style="endArrow=classic;html=1;exitX=0.75;exitY=1;exitDx=0;exitDy=0;entryX=0.5;entryY=0;entryDx=0;entryDy=0;edgeStyle=orthogonalEdgeStyle;" parent="1" source="BJafYr8KW9FpYlb-_F6j-69" target="BJafYr8KW9FpYlb-_F6j-86" edge="1">
          <mxGeometry width="50" height="50" relative="1" as="geometry">
            <mxPoint x="402" y="660" as="sourcePoint" />
            <mxPoint x="452" y="610" as="targetPoint" />
          </mxGeometry>
        </mxCell>
        <mxCell id="BJafYr8KW9FpYlb-_F6j-104" value="" style="endArrow=classic;html=1;exitX=0.75;exitY=1;exitDx=0;exitDy=0;entryX=0.5;entryY=0;entryDx=0;entryDy=0;edgeStyle=orthogonalEdgeStyle;" parent="1" source="BJafYr8KW9FpYlb-_F6j-69" target="BJafYr8KW9FpYlb-_F6j-85" edge="1">
          <mxGeometry width="50" height="50" relative="1" as="geometry">
            <mxPoint x="649" y="436" as="sourcePoint" />
            <mxPoint x="500" y="490" as="targetPoint" />
          </mxGeometry>
        </mxCell>
        <mxCell id="BJafYr8KW9FpYlb-_F6j-105" value="" style="endArrow=classic;html=1;exitX=0.75;exitY=1;exitDx=0;exitDy=0;entryX=0.5;entryY=0;entryDx=0;entryDy=0;edgeStyle=orthogonalEdgeStyle;" parent="1" source="BJafYr8KW9FpYlb-_F6j-69" target="BJafYr8KW9FpYlb-_F6j-83" edge="1">
          <mxGeometry width="50" height="50" relative="1" as="geometry">
            <mxPoint x="524" y="446" as="sourcePoint" />
            <mxPoint x="375" y="500" as="targetPoint" />
          </mxGeometry>
        </mxCell>
        <mxCell id="BJafYr8KW9FpYlb-_F6j-107" value="" style="endArrow=classic;html=1;exitX=0.5;exitY=1;exitDx=0;exitDy=0;edgeStyle=orthogonalEdgeStyle;entryX=0.5;entryY=0;entryDx=0;entryDy=0;" parent="1" source="2" target="BJafYr8KW9FpYlb-_F6j-75" edge="1">
          <mxGeometry width="50" height="50" relative="1" as="geometry">
            <mxPoint x="710" y="786" as="sourcePoint" />
            <mxPoint x="960" y="840" as="targetPoint" />
            <Array as="points">
              <mxPoint x="673" y="270" />
              <mxPoint x="1192" y="270" />
            </Array>
          </mxGeometry>
        </mxCell>
        <mxCell id="BJafYr8KW9FpYlb-_F6j-109" value="" style="endArrow=classic;html=1;entryX=0.577;entryY=-0.005;entryDx=0;entryDy=0;exitX=0.5;exitY=1;exitDx=0;exitDy=0;edgeStyle=orthogonalEdgeStyle;entryPerimeter=0;dashed=1;" parent="1" source="BJafYr8KW9FpYlb-_F6j-76" edge="1">
          <mxGeometry width="50" height="50" relative="1" as="geometry">
            <mxPoint x="597" y="1260" as="sourcePoint" />
            <mxPoint x="1222.1679999999997" y="310.5" as="targetPoint" />
            <Array as="points">
              <mxPoint x="1369" y="270" />
              <mxPoint x="1222" y="270" />
            </Array>
          </mxGeometry>
        </mxCell>
        <mxCell id="BJafYr8KW9FpYlb-_F6j-110" value="" style="endArrow=classic;html=1;exitX=0.5;exitY=1;exitDx=0;exitDy=0;entryX=0.5;entryY=0;entryDx=0;entryDy=0;edgeStyle=orthogonalEdgeStyle;dashed=1;" parent="1" source="BJafYr8KW9FpYlb-_F6j-76" edge="1">
          <mxGeometry width="50" height="50" relative="1" as="geometry">
            <mxPoint x="662" y="966" as="sourcePoint" />
            <mxPoint x="1426" y="301" as="targetPoint" />
            <Array as="points">
              <mxPoint x="1369" y="270" />
              <mxPoint x="1426" y="270" />
            </Array>
          </mxGeometry>
        </mxCell>
        <mxCell id="BJafYr8KW9FpYlb-_F6j-121" value="" style="endArrow=none;dashed=1;html=1;fontSize=24;entryX=0.75;entryY=1;entryDx=0;entryDy=0;exitX=0.25;exitY=0;exitDx=0;exitDy=0;" parent="1" source="BJafYr8KW9FpYlb-_F6j-88" target="IAI4g1nx9SuZOf9ugotO-2" edge="1">
          <mxGeometry width="50" height="50" relative="1" as="geometry">
            <mxPoint x="390" y="570" as="sourcePoint" />
            <mxPoint x="500" y="516" as="targetPoint" />
          </mxGeometry>
        </mxCell>
        <mxCell id="BJafYr8KW9FpYlb-_F6j-122" value="" style="endArrow=none;dashed=1;html=1;fontSize=24;exitX=0.5;exitY=0;exitDx=0;exitDy=0;entryX=0.5;entryY=1;entryDx=0;entryDy=0;" parent="1" source="BJafYr8KW9FpYlb-_F6j-89" target="IAI4g1nx9SuZOf9ugotO-2" edge="1">
          <mxGeometry width="50" height="50" relative="1" as="geometry">
            <mxPoint x="590" y="561" as="sourcePoint" />
            <mxPoint x="590" y="506" as="targetPoint" />
          </mxGeometry>
        </mxCell>
        <mxCell id="BJafYr8KW9FpYlb-_F6j-124" value="" style="endArrow=none;dashed=1;html=1;fontSize=24;exitX=0.5;exitY=0;exitDx=0;exitDy=0;entryX=0.5;entryY=1;entryDx=0;entryDy=0;" parent="1" source="BJafYr8KW9FpYlb-_F6j-88" target="BJafYr8KW9FpYlb-_F6j-83" edge="1">
          <mxGeometry width="50" height="50" relative="1" as="geometry">
            <mxPoint x="420" y="600" as="sourcePoint" />
            <mxPoint x="706" y="509" as="targetPoint" />
          </mxGeometry>
        </mxCell>
        <mxCell id="DW7-9-Qvu8CODxxC_WRJ-2" value="@pass" style="rounded=1;fillColor=#44D4EB;strokeColor=#000000;shadow=1;gradientColor=none;fontStyle=1;fontColor=#FFFFFF;fontSize=14;" parent="1" vertex="1">
          <mxGeometry x="290" y="560" width="68" height="26" as="geometry" />
        </mxCell>
        <mxCell id="DW7-9-Qvu8CODxxC_WRJ-3" value="@caus" style="rounded=1;fillColor=#44D4EB;strokeColor=#000000;shadow=1;gradientColor=none;fontStyle=1;fontColor=#FFFFFF;fontSize=14;" parent="1" vertex="1">
          <mxGeometry x="370" y="560" width="68" height="26" as="geometry" />
        </mxCell>
        <mxCell id="DW7-9-Qvu8CODxxC_WRJ-5" value="" style="endArrow=none;dashed=1;html=1;fontSize=24;entryX=0.25;entryY=1;entryDx=0;entryDy=0;exitX=0.5;exitY=0;exitDx=0;exitDy=0;" parent="1" source="DW7-9-Qvu8CODxxC_WRJ-2" target="oS7zL3N4X74ooPgfppgv-4" edge="1">
          <mxGeometry width="50" height="50" relative="1" as="geometry">
            <mxPoint x="590" y="570" as="sourcePoint" />
            <mxPoint x="516" y="515" as="targetPoint" />
          </mxGeometry>
        </mxCell>
        <mxCell id="DW7-9-Qvu8CODxxC_WRJ-6" value="" style="endArrow=none;dashed=1;html=1;fontSize=24;entryX=0.5;entryY=1;entryDx=0;entryDy=0;exitX=0.75;exitY=0;exitDx=0;exitDy=0;" parent="1" source="DW7-9-Qvu8CODxxC_WRJ-3" target="oS7zL3N4X74ooPgfppgv-4" edge="1">
          <mxGeometry width="50" height="50" relative="1" as="geometry">
            <mxPoint x="704" y="570" as="sourcePoint" />
            <mxPoint x="699" y="516" as="targetPoint" />
          </mxGeometry>
        </mxCell>
        <mxCell id="oS7zL3N4X74ooPgfppgv-4" value="comp:aux" style="rounded=1;fillColor=#66B2FF;strokeColor=#000000;shadow=1;gradientColor=none;fontStyle=1;fontColor=#FFFFFF;fontSize=14;" parent="1" vertex="1">
          <mxGeometry x="400" y="480" width="86" height="26" as="geometry" />
        </mxCell>
        <mxCell id="oS7zL3N4X74ooPgfppgv-5" value="" style="endArrow=classic;html=1;exitX=0.75;exitY=1;exitDx=0;exitDy=0;entryX=0.5;entryY=0;entryDx=0;entryDy=0;edgeStyle=orthogonalEdgeStyle;" parent="1" source="BJafYr8KW9FpYlb-_F6j-69" target="oS7zL3N4X74ooPgfppgv-4" edge="1">
          <mxGeometry width="50" height="50" relative="1" as="geometry">
            <mxPoint x="702" y="436" as="sourcePoint" />
            <mxPoint x="752" y="490" as="targetPoint" />
          </mxGeometry>
        </mxCell>
        <mxCell id="IAI4g1nx9SuZOf9ugotO-2" value="comp:obj" style="rounded=1;fillColor=#66B2FF;strokeColor=#000000;shadow=1;gradientColor=none;fontStyle=1;fontColor=#FFFFFF;fontSize=14;" parent="1" vertex="1">
          <mxGeometry x="500" y="480" width="86" height="26" as="geometry" />
        </mxCell>
        <mxCell id="IAI4g1nx9SuZOf9ugotO-3" value="" style="endArrow=classic;html=1;entryX=0.5;entryY=0;entryDx=0;entryDy=0;edgeStyle=orthogonalEdgeStyle;exitX=0.75;exitY=1;exitDx=0;exitDy=0;" parent="1" source="BJafYr8KW9FpYlb-_F6j-69" target="IAI4g1nx9SuZOf9ugotO-2" edge="1">
          <mxGeometry width="50" height="50" relative="1" as="geometry">
            <mxPoint x="649" y="436" as="sourcePoint" />
            <mxPoint x="804" y="490" as="targetPoint" />
          </mxGeometry>
        </mxCell>
        <mxCell id="tlhwlNTokf7HbB25t9GN-3" value="@relcl" style="rounded=1;fillColor=#44D4EB;strokeColor=#000000;shadow=1;gradientColor=none;fontStyle=1;fontColor=#FFFFFF;fontSize=14;" parent="1" vertex="1">
          <mxGeometry x="872" y="560" width="68" height="26" as="geometry" />
        </mxCell>
        <mxCell id="tlhwlNTokf7HbB25t9GN-7" value="" style="endArrow=none;dashed=1;html=1;entryX=0.5;entryY=1;entryDx=0;entryDy=0;exitX=0.5;exitY=0;exitDx=0;exitDy=0;" parent="1" source="tlhwlNTokf7HbB25t9GN-3" target="BJafYr8KW9FpYlb-_F6j-73" edge="1">
          <mxGeometry width="50" height="50" relative="1" as="geometry">
            <mxPoint x="257" y="550" as="sourcePoint" />
            <mxPoint x="237" y="630" as="targetPoint" />
          </mxGeometry>
        </mxCell>
        <mxCell id="tlhwlNTokf7HbB25t9GN-10" value="@tense" style="rounded=1;fillColor=#44D4EB;strokeColor=#000000;shadow=1;gradientColor=none;fontStyle=1;fontColor=#FFFFFF;fontSize=14;" parent="1" vertex="1">
          <mxGeometry x="450" y="560" width="68" height="26" as="geometry" />
        </mxCell>
        <mxCell id="tlhwlNTokf7HbB25t9GN-11" value="" style="endArrow=none;dashed=1;html=1;entryX=0.75;entryY=1;entryDx=0;entryDy=0;exitX=0.5;exitY=0;exitDx=0;exitDy=0;" parent="1" source="tlhwlNTokf7HbB25t9GN-10" target="oS7zL3N4X74ooPgfppgv-4" edge="1">
          <mxGeometry width="50" height="50" relative="1" as="geometry">
            <mxPoint x="210" y="680" as="sourcePoint" />
            <mxPoint x="260" y="630" as="targetPoint" />
          </mxGeometry>
        </mxCell>
        <mxCell id="031SFzblEUgfxwM-bGQQ-3" value="" style="endArrow=none;dashed=1;html=1;fontSize=24;entryX=0.25;entryY=1;entryDx=0;entryDy=0;exitX=0.84;exitY=0;exitDx=0;exitDy=0;exitPerimeter=0;" parent="1" source="DW7-9-Qvu8CODxxC_WRJ-2" target="IAI4g1nx9SuZOf9ugotO-2" edge="1">
          <mxGeometry width="50" height="50" relative="1" as="geometry">
            <mxPoint x="673" y="569" as="sourcePoint" />
            <mxPoint x="909" y="516" as="targetPoint" />
          </mxGeometry>
        </mxCell>
        <mxCell id="031SFzblEUgfxwM-bGQQ-5" value="" style="endArrow=none;dashed=1;html=1;fontSize=24;entryX=0.75;entryY=1;entryDx=0;entryDy=0;exitX=0.25;exitY=0;exitDx=0;exitDy=0;" parent="1" source="DW7-9-Qvu8CODxxC_WRJ-3" target="BJafYr8KW9FpYlb-_F6j-58" edge="1">
          <mxGeometry width="50" height="50" relative="1" as="geometry">
            <mxPoint x="1090" y="550" as="sourcePoint" />
            <mxPoint x="944" y="516" as="targetPoint" />
          </mxGeometry>
        </mxCell>
        <mxCell id="031SFzblEUgfxwM-bGQQ-6" value="" style="endArrow=none;dashed=1;html=1;fontSize=24;entryX=0.5;entryY=1;entryDx=0;entryDy=0;exitX=0.25;exitY=0;exitDx=0;exitDy=0;" parent="1" source="DW7-9-Qvu8CODxxC_WRJ-2" target="BJafYr8KW9FpYlb-_F6j-58" edge="1">
          <mxGeometry width="50" height="50" relative="1" as="geometry">
            <mxPoint x="331" y="560" as="sourcePoint" />
            <mxPoint x="1083" y="356" as="targetPoint" />
          </mxGeometry>
        </mxCell>
        <mxCell id="031SFzblEUgfxwM-bGQQ-7" value="@expl" style="rounded=1;fillColor=#44D4EB;strokeColor=#000000;shadow=1;gradientColor=none;fontStyle=1;fontColor=#FFFFFF;fontSize=14;" parent="1" vertex="1">
          <mxGeometry x="210" y="560" width="68" height="26" as="geometry" />
        </mxCell>
        <mxCell id="031SFzblEUgfxwM-bGQQ-8" value="" style="endArrow=none;dashed=1;html=1;fontSize=24;entryX=0.25;entryY=1;entryDx=0;entryDy=0;exitX=0.5;exitY=0;exitDx=0;exitDy=0;" parent="1" source="031SFzblEUgfxwM-bGQQ-7" target="BJafYr8KW9FpYlb-_F6j-58" edge="1">
          <mxGeometry width="50" height="50" relative="1" as="geometry">
            <mxPoint x="1100" y="567" as="sourcePoint" />
            <mxPoint x="1083" y="356" as="targetPoint" />
          </mxGeometry>
        </mxCell>
        <mxCell id="031SFzblEUgfxwM-bGQQ-9" value="" style="endArrow=none;dashed=1;html=1;fontSize=24;entryX=0.25;entryY=1;entryDx=0;entryDy=0;exitX=0.75;exitY=0;exitDx=0;exitDy=0;" parent="1" source="031SFzblEUgfxwM-bGQQ-7" target="BJafYr8KW9FpYlb-_F6j-69" edge="1">
          <mxGeometry width="50" height="50" relative="1" as="geometry">
            <mxPoint x="1174" y="570" as="sourcePoint" />
            <mxPoint x="1096" y="356" as="targetPoint" />
          </mxGeometry>
        </mxCell>
        <mxCell id="031SFzblEUgfxwM-bGQQ-10" value="" style="endArrow=none;dashed=1;html=1;fontSize=24;entryX=0.5;entryY=1;entryDx=0;entryDy=0;exitX=0.388;exitY=0;exitDx=0;exitDy=0;exitPerimeter=0;" parent="1" source="DW7-9-Qvu8CODxxC_WRJ-2" target="BJafYr8KW9FpYlb-_F6j-69" edge="1">
          <mxGeometry width="50" height="50" relative="1" as="geometry">
            <mxPoint x="1055" y="561" as="sourcePoint" />
            <mxPoint x="986" y="429" as="targetPoint" />
          </mxGeometry>
        </mxCell>
        <mxCell id="031SFzblEUgfxwM-bGQQ-12" value="" style="endArrow=classic;html=1;entryX=0.5;entryY=0;entryDx=0;entryDy=0;edgeStyle=orthogonalEdgeStyle;exitX=0.5;exitY=1;exitDx=0;exitDy=0;" parent="1" source="2" target="BJafYr8KW9FpYlb-_F6j-58" edge="1">
          <mxGeometry width="50" height="50" relative="1" as="geometry">
            <mxPoint x="620" y="276" as="sourcePoint" />
            <mxPoint x="577" y="330" as="targetPoint" />
            <Array as="points">
              <mxPoint x="673" y="290" />
              <mxPoint x="283" y="290" />
            </Array>
          </mxGeometry>
        </mxCell>
        <mxCell id="031SFzblEUgfxwM-bGQQ-13" value="conj" style="rounded=1;fillColor=#10739E;strokeColor=#000000;shadow=1;gradientColor=none;fontStyle=1;fontColor=#FFFFFF;fontSize=14;" parent="1" vertex="1">
          <mxGeometry x="985" y="392" width="86" height="26" as="geometry" />
        </mxCell>
        <mxCell id="031SFzblEUgfxwM-bGQQ-14" value="" style="endArrow=classic;html=1;edgeStyle=orthogonalEdgeStyle;exitX=0.5;exitY=1;exitDx=0;exitDy=0;entryX=0.5;entryY=0;entryDx=0;entryDy=0;" parent="1" source="2" target="031SFzblEUgfxwM-bGQQ-13" edge="1">
          <mxGeometry width="50" height="50" relative="1" as="geometry">
            <mxPoint x="620" y="276" as="sourcePoint" />
            <mxPoint x="214" y="360" as="targetPoint" />
            <Array as="points">
              <mxPoint x="673" y="290" />
              <mxPoint x="1028" y="290" />
            </Array>
          </mxGeometry>
        </mxCell>
        <mxCell id="031SFzblEUgfxwM-bGQQ-16" value="conj:appos" style="rounded=1;fillColor=#66B2FF;strokeColor=#000000;shadow=1;gradientColor=none;fontStyle=1;fontColor=#FFFFFF;fontSize=14;" parent="1" vertex="1">
          <mxGeometry x="1081" y="480" width="86" height="26" as="geometry" />
        </mxCell>
        <mxCell id="031SFzblEUgfxwM-bGQQ-17" value="conj:coord" style="rounded=1;fillColor=#66B2FF;strokeColor=#000000;shadow=1;gradientColor=none;fontStyle=1;fontColor=#FFFFFF;fontSize=14;" parent="1" vertex="1">
          <mxGeometry x="976" y="480" width="86" height="26" as="geometry" />
        </mxCell>
        <mxCell id="031SFzblEUgfxwM-bGQQ-19" value="conj:dicto" style="rounded=1;fillColor=#66B2FF;strokeColor=#000000;shadow=1;gradientColor=none;fontStyle=1;fontColor=#FFFFFF;fontSize=14;" parent="1" vertex="1">
          <mxGeometry x="1188" y="480" width="86" height="26" as="geometry" />
        </mxCell>
        <mxCell id="031SFzblEUgfxwM-bGQQ-20" value="@emb" style="rounded=1;fillColor=#44D4EB;strokeColor=#000000;shadow=1;gradientColor=none;fontStyle=1;fontColor=#FFFFFF;fontSize=14;" parent="1" vertex="1">
          <mxGeometry x="985" y="560" width="68" height="26" as="geometry" />
        </mxCell>
        <mxCell id="031SFzblEUgfxwM-bGQQ-21" value="" style="endArrow=classic;html=1;exitX=0.5;exitY=1;exitDx=0;exitDy=0;entryX=0.5;entryY=0;entryDx=0;entryDy=0;edgeStyle=orthogonalEdgeStyle;" parent="1" source="031SFzblEUgfxwM-bGQQ-13" target="031SFzblEUgfxwM-bGQQ-16" edge="1">
          <mxGeometry width="50" height="50" relative="1" as="geometry">
            <mxPoint x="1650" y="356" as="sourcePoint" />
            <mxPoint x="1463" y="402" as="targetPoint" />
          </mxGeometry>
        </mxCell>
        <mxCell id="031SFzblEUgfxwM-bGQQ-22" value="" style="endArrow=classic;html=1;exitX=0.5;exitY=1;exitDx=0;exitDy=0;entryX=0.5;entryY=0;entryDx=0;entryDy=0;edgeStyle=orthogonalEdgeStyle;" parent="1" source="031SFzblEUgfxwM-bGQQ-13" target="031SFzblEUgfxwM-bGQQ-17" edge="1">
          <mxGeometry width="50" height="50" relative="1" as="geometry">
            <mxPoint x="1232" y="426" as="sourcePoint" />
            <mxPoint x="1183" y="490" as="targetPoint" />
          </mxGeometry>
        </mxCell>
        <mxCell id="031SFzblEUgfxwM-bGQQ-23" value="" style="endArrow=classic;html=1;entryX=0.5;entryY=0;entryDx=0;entryDy=0;edgeStyle=orthogonalEdgeStyle;exitX=0.5;exitY=1;exitDx=0;exitDy=0;" parent="1" source="031SFzblEUgfxwM-bGQQ-13" target="031SFzblEUgfxwM-bGQQ-19" edge="1">
          <mxGeometry width="50" height="50" relative="1" as="geometry">
            <mxPoint x="1240" y="420" as="sourcePoint" />
            <mxPoint x="1283" y="490" as="targetPoint" />
          </mxGeometry>
        </mxCell>
        <mxCell id="031SFzblEUgfxwM-bGQQ-24" value="" style="endArrow=none;dashed=1;html=1;entryX=0.5;entryY=1;entryDx=0;entryDy=0;exitX=0.5;exitY=0;exitDx=0;exitDy=0;" parent="1" source="031SFzblEUgfxwM-bGQQ-20" target="031SFzblEUgfxwM-bGQQ-17" edge="1">
          <mxGeometry width="50" height="50" relative="1" as="geometry">
            <mxPoint x="1273" y="558" as="sourcePoint" />
            <mxPoint x="1272.67" y="416" as="targetPoint" />
          </mxGeometry>
        </mxCell>
      </root>
    </mxGraphModel>
  </diagram>
</mxfile>
